<svg xmlns="http://www.w3.org/2000/svg" xmlns:xlink="http://www.w3.org/1999/xlink" width="500" zoomAndPan="magnify" viewBox="0 0 375 374.999991" height="500" preserveAspectRatio="xMidYMid meet" version="1.0"><defs><g/><clipPath id="812c6533ee"><path d="M 0.113281 0 L 367.230469 0 L 367.230469 367.117188 L 0.113281 367.117188 Z M 0.113281 0 " clip-rule="nonzero"/></clipPath><clipPath id="68439890d4"><path d="M 183.671875 0 C 82.292969 0 0.113281 82.183594 0.113281 183.558594 C 0.113281 284.933594 82.292969 367.117188 183.671875 367.117188 C 285.046875 367.117188 367.230469 284.933594 367.230469 183.558594 C 367.230469 82.183594 285.046875 0 183.671875 0 " clip-rule="nonzero"/></clipPath><clipPath id="64ec6c2849"><path d="M 0.113281 0 L 366.863281 0 L 366.863281 366.75 L 0.113281 366.75 Z M 0.113281 0 " clip-rule="nonzero"/></clipPath><clipPath id="1347dc599d"><path d="M 183.488281 0 C 82.210938 0 0.113281 82.101562 0.113281 183.375 C 0.113281 284.648438 82.210938 366.75 183.488281 366.75 C 284.761719 366.75 366.863281 284.648438 366.863281 183.375 C 366.863281 82.101562 284.761719 0 183.488281 0 " clip-rule="nonzero"/></clipPath><clipPath id="45f014cd59"><path d="M 125.648438 37.5 L 241.898438 37.5 L 241.898438 173.25 L 125.648438 173.25 Z M 125.648438 37.5 " clip-rule="nonzero"/></clipPath></defs><g clip-path="url(#812c6533ee)"><g clip-path="url(#68439890d4)"><path fill="#ffffff" d="M 0.113281 0 L 367.230469 0 L 367.230469 367.117188 L 0.113281 367.117188 Z M 0.113281 0 " fill-opacity="1" fill-rule="nonzero"/></g></g><g clip-path="url(#64ec6c2849)"><g clip-path="url(#1347dc599d)"><path stroke-linecap="butt" transform="matrix(0.749258, 0, 0, 0.749258, 0.112105, 0.000000000000042633)" fill="none" stroke-linejoin="miter" d="M 244.743767 -0.0000000000000569 C 109.573544 -0.0000000000000569 0.00156933 109.577188 0.00156933 244.742197 C 0.00156933 379.907207 109.573544 489.484395 244.743767 489.484395 C 379.908776 489.484395 489.485964 379.907207 489.485964 244.742197 C 489.485964 109.577188 379.908776 -0.0000000000000569 244.743767 -0.0000000000000569 " stroke="#db0000" stroke-width="32" stroke-opacity="1" stroke-miterlimit="4"/></g></g><g fill="#004a8c" fill-opacity="1"><g transform="translate(24.394146, 231.659121)"><g><path d="M 44.878906 -30.5625 L 36.792969 -30.5625 C 36.398438 -26.703125 36.199219 -21.957031 36.199219 -16.320312 C 36.199219 -15.875 36.472656 -13.351562 37.015625 -8.753906 C 37.015625 -8.554688 37.039062 -8.257812 37.089844 -7.863281 C 37.1875 -7.320312 37.585938 -6.28125 38.277344 -4.746094 C 38.871094 -3.511719 39.167969 -2.449219 39.167969 -1.558594 C 39.167969 -0.421875 38.5 0.148438 37.164062 0.148438 C 34.839844 0.148438 33.058594 -1.507812 31.824219 -4.820312 C 30.933594 -7.246094 30.488281 -9.792969 30.488281 -12.460938 C 30.488281 -13.203125 30.539062 -13.894531 30.636719 -14.539062 C 29.648438 -14.488281 28.878906 -14.464844 28.335938 -14.464844 C 27.398438 -14.464844 26.40625 -14.5625 25.371094 -14.761719 C 26.210938 -13.277344 26.628906 -11.621094 26.628906 -9.792969 C 26.628906 -6.378906 25.46875 -3.808594 23.144531 -2.078125 C 21.066406 -0.542969 18.296875 0.222656 14.835938 0.222656 C 12.214844 0.222656 9.320312 -0.644531 6.15625 -2.375 C 2.496094 -4.300781 0.667969 -6.503906 0.667969 -8.976562 C 0.667969 -10.804688 1.433594 -11.71875 2.96875 -11.71875 C 3.363281 -11.71875 3.78125 -11.621094 4.226562 -11.421875 C 7.246094 -7.21875 10.359375 -5.117188 13.574219 -5.117188 C 18.570312 -5.117188 21.066406 -6.601562 21.066406 -9.570312 C 21.066406 -10.90625 20.546875 -12.375 19.507812 -13.984375 C 18.46875 -15.589844 17.332031 -16.617188 16.097656 -17.0625 C 14.710938 -15.726562 12.957031 -15.058594 10.832031 -15.058594 C 9.496094 -15.058594 8.285156 -15.453125 7.195312 -16.246094 C 5.960938 -17.136719 5.339844 -18.25 5.339844 -19.582031 C 5.339844 -20.621094 5.8125 -21.4375 6.75 -22.03125 C 7.542969 -22.527344 8.433594 -22.773438 9.421875 -22.773438 C 11.992188 -22.773438 13.847656 -22.527344 14.984375 -22.03125 C 15.675781 -22.179688 16.246094 -22.75 16.691406 -23.738281 C 17.136719 -24.578125 17.359375 -25.445312 17.359375 -26.332031 C 17.359375 -27.621094 16.839844 -28.707031 15.800781 -29.597656 C 14.761719 -30.488281 13.550781 -30.933594 12.164062 -30.933594 C 10.039062 -30.933594 8.652344 -30.09375 8.011719 -28.410156 C 7.566406 -27.175781 7.292969 -26.480469 7.195312 -26.332031 C 6.75 -25.691406 6.109375 -25.371094 5.265625 -25.371094 C 4.425781 -25.371094 3.707031 -25.863281 3.117188 -26.851562 C 2.523438 -27.84375 2.226562 -28.730469 2.226562 -29.523438 C 2.226562 -29.917969 2.273438 -30.316406 2.375 -30.710938 C 2.078125 -30.660156 1.707031 -30.636719 1.261719 -30.636719 C -1.558594 -30.636719 -2.96875 -31.550781 -2.96875 -33.378906 C -2.96875 -35.0625 -1.976562 -35.878906 0 -35.828125 L 1.410156 -35.828125 C 3.089844 -35.828125 4.054688 -35.011719 4.300781 -33.378906 C 6.179688 -34.964844 8.332031 -35.753906 10.757812 -35.753906 C 13.921875 -35.753906 16.714844 -34.703125 19.136719 -32.601562 C 21.5625 -30.5 22.773438 -27.867188 22.773438 -24.703125 C 22.773438 -22.921875 22.230469 -21.4375 21.140625 -20.25 C 22.972656 -19.65625 24.824219 -19.359375 26.703125 -19.359375 C 28.140625 -19.359375 29.574219 -19.582031 31.007812 -20.027344 L 31.378906 -30.5625 L 22.773438 -30.5625 C 22.082031 -30.5625 21.476562 -30.832031 20.957031 -31.378906 C 20.4375 -31.921875 20.175781 -32.566406 20.175781 -33.304688 C 20.175781 -33.898438 20.398438 -34.457031 20.84375 -34.976562 C 21.289062 -35.496094 21.808594 -35.753906 22.402344 -35.753906 L 44.285156 -35.753906 C 45.078125 -35.753906 45.757812 -35.484375 46.324219 -34.9375 C 46.894531 -34.394531 47.179688 -33.726562 47.179688 -32.9375 C 47.179688 -31.351562 46.410156 -30.5625 44.878906 -30.5625 Z M 44.878906 -30.5625 "/></g></g></g><g fill="#004a8c" fill-opacity="1"><g transform="translate(69.864713, 231.659121)"><g><path d="M 28.929688 -34.269531 C 27.296875 -37.980469 24.898438 -41.070312 21.734375 -43.542969 C 18.324219 -46.261719 14.8125 -47.625 11.199219 -47.625 C 7.097656 -47.625 5.042969 -45.769531 5.042969 -42.058594 C 5.042969 -40.328125 5.488281 -38.300781 6.378906 -35.976562 L 14.316406 -35.976562 C 15.109375 -35.976562 15.777344 -35.707031 16.320312 -35.160156 C 16.863281 -34.617188 17.136719 -33.925781 17.136719 -33.085938 C 17.136719 -31.550781 16.394531 -30.785156 14.910156 -30.785156 L 6.972656 -30.785156 C 6.875 -29.597656 6.773438 -26.828125 6.675781 -22.476562 C 6.578125 -18.617188 6.527344 -16.320312 6.527344 -15.578125 C 6.527344 -13.054688 6.847656 -10.707031 7.492188 -8.53125 C 7.886719 -7.394531 8.285156 -6.253906 8.679688 -5.117188 C 9.222656 -3.488281 9.496094 -2.421875 9.496094 -1.929688 C 9.496094 -0.691406 8.605469 -0.0742188 6.824219 -0.0742188 C 5.6875 -0.0742188 4.625 -0.765625 3.636719 -2.152344 C 2.003906 -4.425781 1.1875 -8.308594 1.1875 -13.796875 C 1.1875 -15.480469 1.285156 -18.101562 1.484375 -21.660156 C 1.632812 -25.074219 1.707031 -27.695312 1.707031 -29.523438 L 1.707031 -30.785156 L -2.003906 -30.785156 C -2.746094 -30.785156 -3.375 -31.054688 -3.894531 -31.601562 C -4.414062 -32.144531 -4.671875 -32.789062 -4.671875 -33.527344 C -4.671875 -35.011719 -3.929688 -35.828125 -2.449219 -35.976562 C -1.953125 -36.027344 -0.644531 -36.027344 1.484375 -35.976562 C 0.542969 -38.746094 0.0742188 -41.046875 0.0742188 -42.875 C 0.0742188 -45.941406 1 -48.316406 2.855469 -49.996094 C 4.710938 -51.679688 7.171875 -52.519531 10.238281 -52.519531 C 16.914062 -52.519531 23.144531 -49.207031 28.929688 -42.578125 C 30.464844 -40.796875 32.292969 -38.078125 34.417969 -34.417969 Z M 28.929688 -34.269531 "/></g></g></g><g fill="#004a8c" fill-opacity="1"><g transform="translate(86.554666, 231.659121)"><g><path d="M 33.011719 -30.5625 L 24.851562 -30.5625 C 24.851562 -27.546875 24.777344 -22.972656 24.628906 -16.839844 C 24.628906 -16.691406 24.601562 -16.394531 24.554688 -15.949219 C 24.503906 -15.503906 24.480469 -15.15625 24.480469 -14.910156 C 24.480469 -12.683594 24.851562 -10.410156 25.59375 -8.085938 C 26.878906 -3.980469 27.519531 -1.804688 27.519531 -1.558594 C 27.519531 -0.320312 26.605469 0.296875 24.777344 0.296875 C 23.144531 0.296875 21.808594 -0.941406 20.769531 -3.414062 C 20.027344 -5.191406 19.535156 -7.21875 19.285156 -9.496094 C 17.160156 -8.652344 15.378906 -8.234375 13.945312 -8.234375 C 10.78125 -8.234375 7.886719 -9.125 5.265625 -10.90625 C 2.25 -12.933594 0.742188 -15.453125 0.742188 -18.46875 C 0.742188 -20.894531 2.25 -22.824219 5.265625 -24.257812 C 7.691406 -25.445312 10.164062 -26.035156 12.683594 -26.035156 L 13.648438 -26.035156 C 18.050781 -26.035156 20.25 -24.824219 20.25 -22.402344 C 20.25 -21.265625 19.410156 -20.695312 17.730469 -20.695312 C 17.332031 -20.695312 16.753906 -20.722656 15.984375 -20.769531 C 15.21875 -20.820312 14.664062 -20.84375 14.316406 -20.84375 C 8.582031 -20.84375 5.710938 -19.832031 5.710938 -17.804688 C 5.710938 -16.46875 6.453125 -15.332031 7.9375 -14.390625 C 9.273438 -13.5 10.65625 -13.054688 12.089844 -13.054688 C 13.921875 -13.054688 16.292969 -14.019531 19.210938 -15.949219 L 19.507812 -20.84375 C 19.507812 -23.019531 19.535156 -26.257812 19.582031 -30.5625 L 0.890625 -30.5625 C 0.148438 -30.5625 -0.480469 -30.832031 -1 -31.378906 C -1.519531 -31.921875 -1.78125 -32.566406 -1.78125 -33.304688 C -1.78125 -33.898438 -1.546875 -34.457031 -1.074219 -34.976562 C -0.605469 -35.496094 -0.0742188 -35.753906 0.519531 -35.753906 L 32.417969 -35.753906 C 33.207031 -35.753906 33.886719 -35.484375 34.457031 -34.9375 C 35.023438 -34.394531 35.308594 -33.726562 35.308594 -32.9375 C 35.308594 -31.351562 34.542969 -30.5625 33.011719 -30.5625 Z M 33.011719 -30.5625 "/></g></g></g><g fill="#004a8c" fill-opacity="1"><g transform="translate(120.156942, 231.659121)"><g><path d="M 29.300781 -30.5625 L 20.472656 -30.5625 C 22.15625 -27.992188 22.996094 -25.320312 22.996094 -22.550781 C 22.996094 -19.730469 21.90625 -17.554688 19.730469 -16.023438 C 17.804688 -14.636719 15.429688 -13.945312 12.609375 -13.945312 C 11.226562 -13.945312 9.839844 -14.21875 8.457031 -14.761719 C 7.664062 -13.722656 7.269531 -12.339844 7.269531 -10.609375 C 7.269531 -8.828125 8.085938 -7.382812 9.71875 -6.269531 C 11.347656 -5.15625 13.128906 -4.597656 15.058594 -4.597656 C 15.851562 -4.597656 16.664062 -4.796875 17.507812 -5.191406 C 18.296875 -6.378906 19.3125 -6.972656 20.546875 -6.972656 C 21.386719 -6.972656 22.402344 -6.304688 23.589844 -4.96875 C 23.636719 -3.929688 23.664062 -3.585938 23.664062 -3.929688 C 23.664062 -2.746094 22.550781 -1.679688 20.324219 -0.742188 C 18.445312 0 16.789062 0.371094 15.355469 0.371094 C 11.792969 0.371094 8.652344 -0.816406 5.933594 -3.191406 C 3.214844 -5.5625 1.855469 -8.507812 1.855469 -12.015625 C 1.855469 -13.453125 2.300781 -15.082031 3.191406 -16.914062 C 1.410156 -18 0.519531 -19.632812 0.519531 -21.808594 C 0.519531 -23.886719 1.632812 -24.925781 3.855469 -24.925781 C 5.292969 -24.925781 6.613281 -24.367188 7.824219 -23.253906 C 9.039062 -22.144531 9.742188 -20.871094 9.941406 -19.433594 C 11.078125 -19.1875 12.164062 -19.0625 13.203125 -19.0625 C 14.441406 -19.0625 15.503906 -19.558594 16.394531 -20.546875 C 17.285156 -21.535156 17.730469 -22.675781 17.730469 -23.960938 C 17.730469 -25 17.417969 -26.171875 16.800781 -27.484375 C 16.183594 -28.792969 15.453125 -29.820312 14.613281 -30.5625 L 0.148438 -30.5625 C -0.59375 -30.5625 -1.222656 -30.832031 -1.742188 -31.378906 C -2.261719 -31.921875 -2.523438 -32.566406 -2.523438 -33.304688 C -2.523438 -33.898438 -2.300781 -34.457031 -1.855469 -34.976562 C -1.410156 -35.496094 -0.867188 -35.753906 -0.222656 -35.753906 L 28.707031 -35.753906 C 29.5 -35.753906 30.179688 -35.457031 30.746094 -34.863281 C 31.316406 -34.269531 31.601562 -33.578125 31.601562 -32.789062 C 31.601562 -31.304688 30.832031 -30.5625 29.300781 -30.5625 Z M 29.300781 -30.5625 "/></g></g></g><g fill="#004a8c" fill-opacity="1"><g transform="translate(149.90202, 231.659121)"><g><path d="M 32.269531 -17.0625 C 32.316406 -13.945312 32.789062 -11.003906 33.675781 -8.234375 C 35.011719 -4.179688 35.679688 -2.003906 35.679688 -1.707031 C 35.679688 -0.46875 34.816406 0.148438 33.085938 0.148438 C 31.054688 0.148438 29.449219 -1.679688 28.261719 -5.339844 C 27.371094 -8.109375 26.925781 -10.804688 26.925781 -13.425781 C 26.925781 -14.664062 27 -16.988281 27.148438 -20.398438 L 26.851562 -20.695312 C 26.457031 -20.746094 26.257812 -20.769531 26.257812 -20.769531 C 25.617188 -20.769531 24.960938 -20.5 24.292969 -19.953125 C 23.625 -19.410156 22.996094 -18.890625 22.402344 -18.398438 C 22.796875 -16.765625 22.996094 -15.304688 22.996094 -14.019531 C 22.996094 -11.894531 22.5 -10.210938 21.511719 -8.976562 C 20.871094 -8.234375 19.855469 -7.863281 18.46875 -7.863281 C 17.480469 -7.863281 16.566406 -8.777344 15.726562 -10.609375 C 14.984375 -12.191406 14.613281 -13.550781 14.613281 -14.6875 C 14.613281 -16.765625 15.40625 -18.617188 16.988281 -20.25 C 15.800781 -21.488281 14.539062 -22.105469 13.203125 -22.105469 C 12.066406 -22.105469 10.667969 -21.179688 9.011719 -19.324219 C 7.355469 -17.46875 6.527344 -15.109375 6.527344 -12.238281 C 6.527344 -8.925781 7.269531 -6.550781 8.753906 -5.117188 C 9 -4.921875 9.753906 -4.6875 11.015625 -4.414062 C 12.277344 -4.140625 13.03125 -3.90625 13.277344 -3.707031 C 14.117188 -2.917969 14.539062 -1.976562 14.539062 -0.890625 C 14.539062 0.0507812 13.996094 0.519531 12.90625 0.519531 C 11.570312 0.519531 10.136719 0.222656 8.605469 -0.371094 C 6.921875 -0.964844 5.664062 -1.730469 4.820312 -2.671875 C 2.449219 -5.339844 1.261719 -8.800781 1.261719 -13.054688 C 1.261719 -16.566406 2.152344 -19.683594 3.929688 -22.402344 C 6.007812 -25.519531 8.753906 -27.074219 12.164062 -27.074219 C 14.933594 -27.074219 17.582031 -25.9375 20.101562 -23.664062 C 21.238281 -24.949219 22.898438 -25.59375 25.074219 -25.59375 C 25.714844 -25.59375 26.457031 -25.445312 27.296875 -25.148438 C 27.398438 -26.332031 27.546875 -28.140625 27.742188 -30.5625 L 0.148438 -30.5625 C -0.59375 -30.5625 -1.222656 -30.832031 -1.742188 -31.378906 C -2.261719 -31.921875 -2.523438 -32.566406 -2.523438 -33.304688 C -2.523438 -33.898438 -2.289062 -34.457031 -1.816406 -34.976562 C -1.347656 -35.496094 -0.816406 -35.753906 -0.222656 -35.753906 L 40.578125 -35.753906 C 41.367188 -35.753906 42.046875 -35.484375 42.617188 -34.9375 C 43.183594 -34.394531 43.46875 -33.726562 43.46875 -32.9375 C 43.46875 -31.351562 42.703125 -30.5625 41.167969 -30.5625 L 33.085938 -30.5625 C 32.738281 -28.089844 32.539062 -25.714844 32.492188 -23.441406 C 32.492188 -22.007812 32.417969 -19.878906 32.269531 -17.0625 Z M 32.269531 -17.0625 "/></g></g></g><g fill="#db0000" fill-opacity="1"><g transform="translate(191.582849, 231.659121)"><g/></g></g><g fill="#db0000" fill-opacity="1"><g transform="translate(211.462416, 231.659121)"><g><path d="M 28.707031 -14.835938 L 28.707031 -14.761719 C 25.445312 -14.910156 22.425781 -15.675781 19.65625 -17.0625 C 17.925781 -15.378906 15.703125 -14.539062 12.980469 -14.539062 C 11.84375 -14.539062 10.484375 -14.785156 8.902344 -15.28125 C 8.257812 -14.144531 7.9375 -12.832031 7.9375 -11.347656 C 7.9375 -9.617188 8.519531 -8.121094 9.679688 -6.863281 C 10.84375 -5.601562 12.289062 -4.96875 14.019531 -4.96875 C 14.960938 -4.96875 16.070312 -5.339844 17.359375 -6.082031 C 18.199219 -6.578125 18.941406 -7.34375 19.582031 -8.382812 C 19.929688 -8.875 20.449219 -9.125 21.140625 -9.125 C 23.5625 -9.125 24.777344 -8.011719 24.777344 -5.785156 C 24.777344 -5.09375 24.355469 -4.402344 23.515625 -3.707031 C 23.21875 -3.414062 22.75 -2.992188 22.105469 -2.449219 C 20.128906 -0.867188 17.878906 -0.0742188 15.355469 -0.0742188 C 12.042969 -0.0742188 9.097656 -1.210938 6.527344 -3.488281 C 3.957031 -5.761719 2.671875 -8.53125 2.671875 -11.792969 C 2.671875 -14.070312 3.089844 -15.925781 3.929688 -17.359375 C 1.953125 -18.445312 0.964844 -20.027344 0.964844 -22.105469 C 0.964844 -24.183594 2.101562 -25.222656 4.375 -25.222656 C 5.960938 -25.222656 7.417969 -24.714844 8.753906 -23.699219 C 10.089844 -22.6875 10.730469 -21.386719 10.683594 -19.804688 L 10.683594 -19.65625 C 11.523438 -19.609375 12.164062 -19.582031 12.609375 -19.582031 C 13.945312 -19.582031 15.058594 -19.964844 15.949219 -20.734375 C 16.839844 -21.5 17.285156 -22.527344 17.285156 -23.8125 C 17.285156 -26.234375 16.34375 -28.484375 14.464844 -30.5625 L 0.890625 -30.5625 C 0.148438 -30.5625 -0.480469 -30.832031 -1 -31.378906 C -1.519531 -31.921875 -1.78125 -32.566406 -1.78125 -33.304688 C -1.78125 -33.898438 -1.546875 -34.457031 -1.074219 -34.976562 C -0.605469 -35.496094 -0.0742188 -35.753906 0.519531 -35.753906 L 43.542969 -35.753906 C 44.335938 -35.753906 45.015625 -35.484375 45.582031 -34.9375 C 46.152344 -34.394531 46.4375 -33.726562 46.4375 -32.9375 C 46.4375 -31.351562 45.667969 -30.5625 44.136719 -30.5625 L 35.53125 -30.5625 C 35.53125 -27.25 35.335938 -22.277344 34.9375 -15.652344 C 35.039062 -12.785156 35.382812 -10.386719 35.976562 -8.457031 C 37.3125 -4.253906 37.980469 -2.078125 37.980469 -1.929688 C 37.980469 -0.691406 37.089844 -0.0742188 35.308594 -0.0742188 C 33.183594 -0.0742188 31.550781 -2.101562 30.414062 -6.15625 C 29.769531 -8.332031 29.523438 -11.226562 29.671875 -14.835938 C 29.425781 -14.835938 29.101562 -14.835938 28.707031 -14.835938 Z M 20.175781 -30.5625 C 21.511719 -27.644531 22.179688 -25.074219 22.179688 -22.847656 C 22.179688 -22.253906 22.105469 -21.636719 21.957031 -20.992188 C 23.738281 -19.90625 25.765625 -19.359375 28.039062 -19.359375 C 28.582031 -19.359375 29.175781 -19.484375 29.820312 -19.730469 L 29.820312 -20.546875 C 29.820312 -23.121094 29.945312 -26.457031 30.191406 -30.5625 Z M 20.175781 -30.5625 "/></g></g></g><g fill="#db0000" fill-opacity="1"><g transform="translate(256.562093, 231.659121)"><g><path d="M -2.003906 -42.503906 C -3.140625 -42.503906 -4.152344 -42.875 -5.042969 -43.617188 C -5.933594 -44.359375 -6.378906 -45.300781 -6.378906 -46.4375 C -6.378906 -47.476562 -5.972656 -48.328125 -5.15625 -48.996094 C -4.339844 -49.664062 -3.414062 -49.996094 -2.375 -49.996094 C -1.234375 -49.996094 -0.222656 -49.625 0.667969 -48.882812 C 1.558594 -48.140625 2.003906 -47.203125 2.003906 -46.066406 C 2.003906 -45.027344 1.59375 -44.175781 0.777344 -43.507812 C -0.0351562 -42.839844 -0.964844 -42.503906 -2.003906 -42.503906 Z M -2.003906 -42.503906 "/></g></g></g><g fill="#db0000" fill-opacity="1"><g transform="translate(258.639216, 231.659121)"><g><path d="M 40.058594 -30.5625 L 33.453125 -30.5625 C 32.664062 -25.816406 32.269531 -21.3125 32.269531 -17.0625 C 32.269531 -13.253906 32.613281 -10.261719 33.304688 -8.085938 C 33.703125 -7.097656 34.097656 -6.109375 34.492188 -5.117188 C 34.988281 -3.929688 35.234375 -2.917969 35.234375 -2.078125 C 35.234375 -0.496094 34.371094 0.296875 32.640625 0.296875 C 31.007812 0.296875 29.648438 -0.867188 28.558594 -3.191406 C 27.769531 -4.871094 27.273438 -6.773438 27.074219 -8.902344 C 25.195312 -8.160156 22.625 -7.789062 19.359375 -7.789062 C 16.394531 -7.789062 13.722656 -8.257812 11.347656 -9.199219 C 8.085938 -10.535156 6.453125 -12.535156 6.453125 -15.207031 C 6.453125 -16.589844 7.121094 -17.878906 8.457031 -19.0625 C 7.320312 -19.3125 6.429688 -19.460938 5.785156 -19.507812 C 4.152344 -19.558594 3.089844 -19.707031 2.597656 -19.953125 C 1.804688 -20.398438 1.210938 -21.3125 0.816406 -22.699219 C 0.71875 -22.945312 0.667969 -23.195312 0.667969 -23.441406 C 0.667969 -24.480469 1.359375 -25 2.746094 -25 C 4.375 -25 6.8125 -24.800781 10.050781 -24.40625 C 13.289062 -24.007812 15.726562 -23.8125 17.359375 -23.8125 C 17.65625 -23.8125 18.050781 -23.859375 18.542969 -23.960938 C 19.039062 -24.058594 19.410156 -24.109375 19.65625 -24.109375 C 22.03125 -24.109375 23.21875 -23.34375 23.21875 -21.808594 C 23.21875 -21.265625 22.996094 -20.722656 22.550781 -20.175781 C 21.90625 -19.386719 20.820312 -18.964844 19.285156 -18.914062 C 17.507812 -18.816406 16.367188 -18.617188 15.875 -18.324219 C 13.203125 -16.542969 11.867188 -15.257812 11.867188 -14.464844 C 11.867188 -13.425781 13.277344 -12.90625 16.097656 -12.90625 C 20.351562 -12.90625 23.984375 -13.597656 27 -14.984375 C 27.25 -20.128906 27.621094 -25.320312 28.113281 -30.5625 L 0.519531 -30.5625 C -0.222656 -30.5625 -0.851562 -30.832031 -1.371094 -31.378906 C -1.890625 -31.921875 -2.152344 -32.566406 -2.152344 -33.304688 C -2.152344 -33.898438 -1.917969 -34.457031 -1.445312 -34.976562 C -0.976562 -35.496094 -0.445312 -35.753906 0.148438 -35.753906 L 39.464844 -35.753906 C 40.253906 -35.753906 40.933594 -35.484375 41.503906 -34.9375 C 42.070312 -34.394531 42.355469 -33.726562 42.355469 -32.9375 C 42.355469 -31.351562 41.589844 -30.5625 40.058594 -30.5625 Z M 40.058594 -30.5625 "/></g></g></g><g fill="#db0000" fill-opacity="1"><g transform="translate(300.549291, 231.659121)"><g><path d="M 5.488281 -15.28125 C 5.6875 -12.363281 6.035156 -10.015625 6.527344 -8.234375 C 7.8125 -4.03125 8.457031 -1.855469 8.457031 -1.707031 C 8.457031 -0.46875 7.589844 0.148438 5.859375 0.148438 C 3.882812 0.148438 2.398438 -1.605469 1.410156 -5.117188 C 0.667969 -7.640625 0.296875 -10.238281 0.296875 -12.90625 C 0.296875 -13.746094 0.421875 -16.441406 0.667969 -20.992188 C 0.71875 -23.121094 0.765625 -26.308594 0.816406 -30.5625 L 0.519531 -30.5625 C -2.003906 -30.5625 -3.265625 -31.476562 -3.265625 -33.304688 C -3.265625 -33.898438 -3.042969 -34.457031 -2.597656 -34.976562 C -2.152344 -35.496094 -1.632812 -35.753906 -1.039062 -35.753906 L 12.90625 -35.753906 C 13.699219 -35.753906 14.367188 -35.484375 14.910156 -34.9375 C 15.453125 -34.394531 15.726562 -33.726562 15.726562 -32.9375 C 15.726562 -31.351562 14.984375 -30.5625 13.5 -30.5625 L 6.082031 -30.5625 C 5.984375 -29.375 5.886719 -26.53125 5.785156 -22.03125 C 5.785156 -20.5 5.6875 -18.25 5.488281 -15.28125 Z M 5.488281 -15.28125 "/></g></g></g><g fill="#db0000" fill-opacity="1"><g transform="translate(315.013943, 231.659121)"><g><path d="M 29.300781 -30.5625 L 20.472656 -30.5625 C 22.15625 -27.992188 22.996094 -25.320312 22.996094 -22.550781 C 22.996094 -19.730469 21.90625 -17.554688 19.730469 -16.023438 C 17.804688 -14.636719 15.429688 -13.945312 12.609375 -13.945312 C 11.226562 -13.945312 9.839844 -14.21875 8.457031 -14.761719 C 7.664062 -13.722656 7.269531 -12.339844 7.269531 -10.609375 C 7.269531 -8.828125 8.085938 -7.382812 9.71875 -6.269531 C 11.347656 -5.15625 13.128906 -4.597656 15.058594 -4.597656 C 15.851562 -4.597656 16.664062 -4.796875 17.507812 -5.191406 C 18.296875 -6.378906 19.3125 -6.972656 20.546875 -6.972656 C 21.386719 -6.972656 22.402344 -6.304688 23.589844 -4.96875 C 23.636719 -3.929688 23.664062 -3.585938 23.664062 -3.929688 C 23.664062 -2.746094 22.550781 -1.679688 20.324219 -0.742188 C 18.445312 0 16.789062 0.371094 15.355469 0.371094 C 11.792969 0.371094 8.652344 -0.816406 5.933594 -3.191406 C 3.214844 -5.5625 1.855469 -8.507812 1.855469 -12.015625 C 1.855469 -13.453125 2.300781 -15.082031 3.191406 -16.914062 C 1.410156 -18 0.519531 -19.632812 0.519531 -21.808594 C 0.519531 -23.886719 1.632812 -24.925781 3.855469 -24.925781 C 5.292969 -24.925781 6.613281 -24.367188 7.824219 -23.253906 C 9.039062 -22.144531 9.742188 -20.871094 9.941406 -19.433594 C 11.078125 -19.1875 12.164062 -19.0625 13.203125 -19.0625 C 14.441406 -19.0625 15.503906 -19.558594 16.394531 -20.546875 C 17.285156 -21.535156 17.730469 -22.675781 17.730469 -23.960938 C 17.730469 -25 17.417969 -26.171875 16.800781 -27.484375 C 16.183594 -28.792969 15.453125 -29.820312 14.613281 -30.5625 L 0.148438 -30.5625 C -0.59375 -30.5625 -1.222656 -30.832031 -1.742188 -31.378906 C -2.261719 -31.921875 -2.523438 -32.566406 -2.523438 -33.304688 C -2.523438 -33.898438 -2.300781 -34.457031 -1.855469 -34.976562 C -1.410156 -35.496094 -0.867188 -35.753906 -0.222656 -35.753906 L 28.707031 -35.753906 C 29.5 -35.753906 30.179688 -35.457031 30.746094 -34.863281 C 31.316406 -34.269531 31.601562 -33.578125 31.601562 -32.789062 C 31.601562 -31.304688 30.832031 -30.5625 29.300781 -30.5625 Z M 29.300781 -30.5625 "/></g></g></g><g fill="#000000" fill-opacity="1"><g transform="translate(344.75231, 231.659121)"><g/></g></g><g fill="#000000" fill-opacity="1"><g transform="translate(53.898607, 262.693938)"><g><path d="M 17.734375 -9.859375 C 17.460938 -9.671875 17.078125 -9.472656 16.578125 -9.265625 L 13.5625 -0.109375 C 12.976562 0.0859375 12.257812 0.1875 11.40625 0.1875 C 10.96875 0.1875 10.554688 0.144531 10.171875 0.0625 L 8.828125 -3.796875 L 7.25 -0.109375 C 6.757812 0.0664062 6.054688 0.15625 5.140625 0.15625 L 3.859375 0.0625 L 0.78125 -9.09375 L -0.5 -9.671875 L -0.5 -10.859375 L 5.34375 -10.859375 L 5.421875 -9.859375 L 4.203125 -9.234375 L 5.59375 -4.84375 L 6.15625 -2.515625 L 6.328125 -2.515625 L 7.796875 -6.65625 L 6.46875 -10.453125 L 9.671875 -10.765625 L 11.6875 -4.84375 L 12.109375 -2.515625 L 12.296875 -2.515625 L 13.390625 -9.1875 L 12.09375 -9.671875 L 12.109375 -10.859375 L 17.671875 -10.859375 Z M 17.734375 -9.859375 "/></g></g></g><g fill="#000000" fill-opacity="1"><g transform="translate(71.661408, 262.693938)"><g><path d="M 17.734375 -9.859375 C 17.460938 -9.671875 17.078125 -9.472656 16.578125 -9.265625 L 13.5625 -0.109375 C 12.976562 0.0859375 12.257812 0.1875 11.40625 0.1875 C 10.96875 0.1875 10.554688 0.144531 10.171875 0.0625 L 8.828125 -3.796875 L 7.25 -0.109375 C 6.757812 0.0664062 6.054688 0.15625 5.140625 0.15625 L 3.859375 0.0625 L 0.78125 -9.09375 L -0.5 -9.671875 L -0.5 -10.859375 L 5.34375 -10.859375 L 5.421875 -9.859375 L 4.203125 -9.234375 L 5.59375 -4.84375 L 6.15625 -2.515625 L 6.328125 -2.515625 L 7.796875 -6.65625 L 6.46875 -10.453125 L 9.671875 -10.765625 L 11.6875 -4.84375 L 12.109375 -2.515625 L 12.296875 -2.515625 L 13.390625 -9.1875 L 12.09375 -9.671875 L 12.109375 -10.859375 L 17.671875 -10.859375 Z M 17.734375 -9.859375 "/></g></g></g><g fill="#000000" fill-opacity="1"><g transform="translate(89.42421, 262.693938)"><g><path d="M 17.734375 -9.859375 C 17.460938 -9.671875 17.078125 -9.472656 16.578125 -9.265625 L 13.5625 -0.109375 C 12.976562 0.0859375 12.257812 0.1875 11.40625 0.1875 C 10.96875 0.1875 10.554688 0.144531 10.171875 0.0625 L 8.828125 -3.796875 L 7.25 -0.109375 C 6.757812 0.0664062 6.054688 0.15625 5.140625 0.15625 L 3.859375 0.0625 L 0.78125 -9.09375 L -0.5 -9.671875 L -0.5 -10.859375 L 5.34375 -10.859375 L 5.421875 -9.859375 L 4.203125 -9.234375 L 5.59375 -4.84375 L 6.15625 -2.515625 L 6.328125 -2.515625 L 7.796875 -6.65625 L 6.46875 -10.453125 L 9.671875 -10.765625 L 11.6875 -4.84375 L 12.109375 -2.515625 L 12.296875 -2.515625 L 13.390625 -9.1875 L 12.09375 -9.671875 L 12.109375 -10.859375 L 17.671875 -10.859375 Z M 17.734375 -9.859375 "/></g></g></g><g fill="#000000" fill-opacity="1"><g transform="translate(107.18701, 262.693938)"><g><path d="M 4.28125 0.890625 C 3.925781 0.753906 3.523438 0.515625 3.078125 0.171875 C 2.640625 -0.171875 2.304688 -0.492188 2.078125 -0.796875 C 2.609375 -1.867188 3.195312 -2.585938 3.84375 -2.953125 C 4.613281 -2.660156 5.3125 -2.09375 5.9375 -1.25 C 5.59375 -0.34375 5.039062 0.367188 4.28125 0.890625 Z M 4.28125 0.890625 "/></g></g></g><g fill="#000000" fill-opacity="1"><g transform="translate(113.336574, 262.693938)"><g><path d="M 12.234375 -1.09375 L 9.4375 0.359375 C 9.070312 0.347656 8.691406 0.1875 8.296875 -0.125 C 7.898438 -0.4375 7.585938 -0.820312 7.359375 -1.28125 L 4.875 0.296875 L 4.15625 0.34375 C 3.195312 0.34375 2.40625 0.0625 1.78125 -0.5 C 1.15625 -1.0625 0.84375 -1.738281 0.84375 -2.53125 C 0.84375 -3.632812 1.4375 -4.503906 2.625 -5.140625 L 7 -5.25 L 7 -7.296875 C 7 -8.515625 6.640625 -9.289062 5.921875 -9.625 C 5.222656 -9.582031 4.648438 -9.484375 4.203125 -9.328125 L 3.796875 -6.859375 L 1.875 -6.796875 C 1.539062 -7.628906 1.375 -8.550781 1.375 -9.5625 L 1.390625 -10.015625 C 2.234375 -10.378906 3.238281 -10.703125 4.40625 -10.984375 C 5.582031 -11.265625 6.476562 -11.40625 7.09375 -11.40625 C 7.65625 -11.40625 8.207031 -11.253906 8.75 -10.953125 C 9.289062 -10.648438 9.726562 -10.253906 10.0625 -9.765625 C 10.226562 -9.472656 10.316406 -8.894531 10.328125 -8.03125 L 10.328125 -2.53125 C 10.328125 -2.164062 10.519531 -1.984375 10.90625 -1.984375 L 12.03125 -2.125 Z M 4.640625 -1.6875 C 5.253906 -1.707031 6.039062 -1.898438 7 -2.265625 L 7 -3.90625 L 6.421875 -3.9375 C 4.910156 -3.9375 4.15625 -3.523438 4.15625 -2.703125 C 4.15625 -2.285156 4.316406 -1.945312 4.640625 -1.6875 Z M 4.640625 -1.6875 "/></g></g></g><g fill="#000000" fill-opacity="1"><g transform="translate(125.978579, 262.693938)"><g><path d="M 7.203125 -11.15625 L 8.03125 -11.21875 C 9.257812 -11.21875 10.269531 -10.710938 11.0625 -9.703125 C 11.851562 -8.691406 12.25 -7.421875 12.25 -5.890625 C 12.25 -4.046875 11.65625 -2.53125 10.46875 -1.34375 C 9.28125 -0.15625 7.742188 0.4375 5.859375 0.4375 C 4.460938 0.4375 2.957031 0.125 1.34375 -0.5 L 1.34375 -14.75 L -0.34375 -14.921875 L -0.5 -16.03125 C 0.757812 -16.507812 2.113281 -16.773438 3.5625 -16.828125 L 3.5625 -16.796875 L 4.65625 -15.796875 L 4.65625 -9.390625 Z M 7.21875 -1.53125 C 7.707031 -1.914062 8.09375 -2.445312 8.375 -3.125 C 8.65625 -3.8125 8.796875 -4.53125 8.796875 -5.28125 C 8.796875 -6.238281 8.570312 -7.054688 8.125 -7.734375 C 7.675781 -8.410156 7.085938 -8.75 6.359375 -8.75 C 5.878906 -8.75 5.3125 -8.578125 4.65625 -8.234375 L 4.65625 -1.875 C 5.207031 -1.613281 5.828125 -1.484375 6.515625 -1.484375 Z M 7.21875 -1.53125 "/></g></g></g><g fill="#000000" fill-opacity="1"><g transform="translate(138.872052, 262.693938)"><g><path d="M 3.90625 -12.75 C 2.945312 -13.175781 2.148438 -13.796875 1.515625 -14.609375 C 2.015625 -15.609375 2.664062 -16.414062 3.46875 -17.03125 C 4.382812 -16.539062 5.15625 -15.867188 5.78125 -15.015625 C 5.351562 -14.097656 4.726562 -13.34375 3.90625 -12.75 Z M 5.390625 -1.8125 C 6.109375 -1.582031 6.664062 -1.351562 7.0625 -1.125 L 6.96875 0 L 0.40625 0 L 0.34375 -0.78125 C 0.800781 -1.039062 1.378906 -1.289062 2.078125 -1.53125 L 2.078125 -9.1875 L 0.359375 -9.390625 L 0.203125 -10.5 C 1.515625 -11 2.875 -11.265625 4.28125 -11.296875 L 5.390625 -10.28125 Z M 5.390625 -1.8125 "/></g></g></g><g fill="#000000" fill-opacity="1"><g transform="translate(146.507561, 262.693938)"><g><path d="M 7.6875 -10.96875 C 8.050781 -11.101562 8.429688 -11.171875 8.828125 -11.171875 C 9.617188 -11.171875 10.257812 -10.945312 10.75 -10.5 C 10.664062 -8.820312 10.378906 -7.378906 9.890625 -6.171875 L 8.15625 -6.171875 L 7.703125 -8.734375 C 6.867188 -8.109375 6.097656 -7.367188 5.390625 -6.515625 L 5.390625 -1.890625 C 6.460938 -1.679688 7.285156 -1.425781 7.859375 -1.125 L 7.765625 0 L 0.453125 0 L 0.390625 -0.78125 C 0.816406 -1.019531 1.378906 -1.265625 2.078125 -1.515625 L 2.078125 -9.1875 L 0.359375 -9.390625 L 0.203125 -10.5 C 1.515625 -11 2.875 -11.265625 4.28125 -11.296875 L 5.390625 -10.28125 L 5.390625 -8.40625 Z M 7.6875 -10.96875 "/></g></g></g><g fill="#000000" fill-opacity="1"><g transform="translate(157.503595, 262.693938)"><g><path d="M 12.234375 -1.09375 L 9.4375 0.359375 C 9.070312 0.347656 8.691406 0.1875 8.296875 -0.125 C 7.898438 -0.4375 7.585938 -0.820312 7.359375 -1.28125 L 4.875 0.296875 L 4.15625 0.34375 C 3.195312 0.34375 2.40625 0.0625 1.78125 -0.5 C 1.15625 -1.0625 0.84375 -1.738281 0.84375 -2.53125 C 0.84375 -3.632812 1.4375 -4.503906 2.625 -5.140625 L 7 -5.25 L 7 -7.296875 C 7 -8.515625 6.640625 -9.289062 5.921875 -9.625 C 5.222656 -9.582031 4.648438 -9.484375 4.203125 -9.328125 L 3.796875 -6.859375 L 1.875 -6.796875 C 1.539062 -7.628906 1.375 -8.550781 1.375 -9.5625 L 1.390625 -10.015625 C 2.234375 -10.378906 3.238281 -10.703125 4.40625 -10.984375 C 5.582031 -11.265625 6.476562 -11.40625 7.09375 -11.40625 C 7.65625 -11.40625 8.207031 -11.253906 8.75 -10.953125 C 9.289062 -10.648438 9.726562 -10.253906 10.0625 -9.765625 C 10.226562 -9.472656 10.316406 -8.894531 10.328125 -8.03125 L 10.328125 -2.53125 C 10.328125 -2.164062 10.519531 -1.984375 10.90625 -1.984375 L 12.03125 -2.125 Z M 4.640625 -1.6875 C 5.253906 -1.707031 6.039062 -1.898438 7 -2.265625 L 7 -3.90625 L 6.421875 -3.9375 C 4.910156 -3.9375 4.15625 -3.523438 4.15625 -2.703125 C 4.15625 -2.285156 4.316406 -1.945312 4.640625 -1.6875 Z M 4.640625 -1.6875 "/></g></g></g><g fill="#000000" fill-opacity="1"><g transform="translate(170.1456, 262.693938)"><g><path d="M 5.390625 -1.8125 C 6.109375 -1.582031 6.664062 -1.351562 7.0625 -1.125 L 6.96875 0 L 0.40625 0 L 0.34375 -0.78125 C 0.800781 -1.039062 1.378906 -1.289062 2.078125 -1.53125 L 2.078125 -14.75 L 0.359375 -14.921875 L 0.203125 -16.03125 C 1.515625 -16.53125 2.875 -16.796875 4.28125 -16.828125 L 5.390625 -15.8125 Z M 5.390625 -1.8125 "/></g></g></g><g fill="#000000" fill-opacity="1"><g transform="translate(177.986856, 262.693938)"><g><path d="M 3.8125 -8.625 C 3.8125 -8.300781 3.929688 -8.015625 4.171875 -7.765625 C 4.410156 -7.523438 5.128906 -7.109375 6.328125 -6.515625 C 7.535156 -5.929688 8.351562 -5.375 8.78125 -4.84375 C 9.207031 -4.3125 9.421875 -3.703125 9.421875 -3.015625 C 9.421875 -1.992188 9.007812 -1.160156 8.1875 -0.515625 C 7.375 0.128906 6.304688 0.453125 4.984375 0.453125 C 3.492188 0.453125 1.984375 0.0507812 0.453125 -0.75 L 1.59375 -3.421875 C 3 -2.390625 4.421875 -1.679688 5.859375 -1.296875 C 6.171875 -1.578125 6.328125 -1.921875 6.328125 -2.328125 C 6.328125 -2.679688 6.191406 -2.988281 5.921875 -3.25 C 5.648438 -3.507812 4.929688 -3.921875 3.765625 -4.484375 C 2.609375 -5.046875 1.828125 -5.582031 1.421875 -6.09375 C 1.023438 -6.601562 0.828125 -7.191406 0.828125 -7.859375 C 0.828125 -8.898438 1.273438 -9.738281 2.171875 -10.375 C 3.066406 -11.019531 4.21875 -11.34375 5.625 -11.34375 C 6.9375 -11.34375 8.046875 -11.097656 8.953125 -10.609375 L 8.984375 -9.96875 C 8.984375 -9.082031 8.851562 -8.257812 8.59375 -7.5 L 6.828125 -7.5 L 6.28125 -9.515625 C 5.707031 -9.660156 5.175781 -9.71875 4.6875 -9.6875 C 4.101562 -9.488281 3.8125 -9.132812 3.8125 -8.625 Z M 3.8125 -8.625 "/></g></g></g><g fill="#000000" fill-opacity="1"><g transform="translate(188.388508, 262.693938)"><g><path d="M 12.234375 -1.09375 L 9.4375 0.359375 C 9.070312 0.347656 8.691406 0.1875 8.296875 -0.125 C 7.898438 -0.4375 7.585938 -0.820312 7.359375 -1.28125 L 4.875 0.296875 L 4.15625 0.34375 C 3.195312 0.34375 2.40625 0.0625 1.78125 -0.5 C 1.15625 -1.0625 0.84375 -1.738281 0.84375 -2.53125 C 0.84375 -3.632812 1.4375 -4.503906 2.625 -5.140625 L 7 -5.25 L 7 -7.296875 C 7 -8.515625 6.640625 -9.289062 5.921875 -9.625 C 5.222656 -9.582031 4.648438 -9.484375 4.203125 -9.328125 L 3.796875 -6.859375 L 1.875 -6.796875 C 1.539062 -7.628906 1.375 -8.550781 1.375 -9.5625 L 1.390625 -10.015625 C 2.234375 -10.378906 3.238281 -10.703125 4.40625 -10.984375 C 5.582031 -11.265625 6.476562 -11.40625 7.09375 -11.40625 C 7.65625 -11.40625 8.207031 -11.253906 8.75 -10.953125 C 9.289062 -10.648438 9.726562 -10.253906 10.0625 -9.765625 C 10.226562 -9.472656 10.316406 -8.894531 10.328125 -8.03125 L 10.328125 -2.53125 C 10.328125 -2.164062 10.519531 -1.984375 10.90625 -1.984375 L 12.03125 -2.125 Z M 4.640625 -1.6875 C 5.253906 -1.707031 6.039062 -1.898438 7 -2.265625 L 7 -3.90625 L 6.421875 -3.9375 C 4.910156 -3.9375 4.15625 -3.523438 4.15625 -2.703125 C 4.15625 -2.285156 4.316406 -1.945312 4.640625 -1.6875 Z M 4.640625 -1.6875 "/></g></g></g><g fill="#000000" fill-opacity="1"><g transform="translate(201.030513, 262.693938)"><g><path d="M 12.34375 -1.78125 C 13.09375 -1.550781 13.632812 -1.332031 13.96875 -1.125 L 13.875 0 L 7.84375 0 L 7.765625 -0.78125 L 9.03125 -1.34375 L 9.03125 -6.609375 C 9.03125 -8.097656 8.535156 -8.84375 7.546875 -8.84375 C 7.066406 -8.84375 6.347656 -8.578125 5.390625 -8.046875 L 5.390625 -1.734375 C 5.921875 -1.566406 6.390625 -1.363281 6.796875 -1.125 L 6.703125 0 L 0.484375 0 L 0.40625 -0.78125 C 0.820312 -1.007812 1.378906 -1.253906 2.078125 -1.515625 L 2.078125 -9.1875 L 0.359375 -9.390625 L 0.203125 -10.5 C 1.515625 -11 2.875 -11.265625 4.28125 -11.296875 L 5.390625 -10.1875 L 5.390625 -9.140625 C 6.929688 -10.265625 8.222656 -10.957031 9.265625 -11.21875 C 9.960938 -11.175781 10.613281 -10.941406 11.21875 -10.515625 C 11.832031 -10.085938 12.1875 -9.539062 12.28125 -8.875 L 12.34375 -7.5625 Z M 12.34375 -1.78125 "/></g></g></g><g fill="#000000" fill-opacity="1"><g transform="translate(215.478506, 262.693938)"><g><path d="M 6.625 0.3125 L 5.921875 0.359375 C 4.304688 0.359375 2.96875 -0.175781 1.90625 -1.25 C 0.84375 -2.332031 0.3125 -3.722656 0.3125 -5.421875 C 0.3125 -7.160156 0.84375 -8.582031 1.90625 -9.6875 C 2.96875 -10.789062 4.304688 -11.34375 5.921875 -11.34375 C 6.847656 -11.34375 7.6875 -11.128906 8.4375 -10.703125 C 9.195312 -10.273438 9.753906 -9.664062 10.109375 -8.875 L 7.609375 -7.15625 C 6.710938 -8.375 5.769531 -9.144531 4.78125 -9.46875 C 3.96875 -8.59375 3.5625 -7.429688 3.5625 -5.984375 C 3.5625 -4.785156 3.851562 -3.804688 4.4375 -3.046875 C 5.03125 -2.296875 5.859375 -1.921875 6.921875 -1.921875 C 7.703125 -1.921875 8.523438 -2.125 9.390625 -2.53125 L 9.875 -1.390625 Z M 6.625 0.3125 "/></g></g></g><g fill="#000000" fill-opacity="1"><g transform="translate(225.903018, 262.693938)"><g><path d="M 12.296875 -1.78125 C 12.910156 -1.613281 13.457031 -1.394531 13.9375 -1.125 L 13.859375 0 L 7.796875 0 L 7.71875 -0.78125 L 8.984375 -1.34375 L 8.984375 -6.609375 C 8.984375 -8.097656 8.488281 -8.84375 7.5 -8.84375 C 7 -8.84375 6.296875 -8.582031 5.390625 -8.0625 L 5.390625 -1.734375 C 5.921875 -1.566406 6.390625 -1.363281 6.796875 -1.125 L 6.703125 0 L 0.453125 0 L 0.390625 -0.78125 C 0.816406 -1.019531 1.378906 -1.265625 2.078125 -1.515625 L 2.078125 -14.75 L 0.359375 -14.921875 L 0.203125 -16.03125 C 1.515625 -16.53125 2.875 -16.796875 4.28125 -16.828125 L 5.390625 -15.8125 L 5.390625 -9.171875 C 6.898438 -10.273438 8.175781 -10.957031 9.21875 -11.21875 C 9.914062 -11.175781 10.566406 -10.941406 11.171875 -10.515625 C 11.785156 -10.085938 12.140625 -9.539062 12.234375 -8.875 L 12.296875 -7.5625 Z M 12.296875 -1.78125 "/></g></g></g><g fill="#000000" fill-opacity="1"><g transform="translate(240.32815, 262.693938)"><g><path d="M 12.234375 -1.09375 L 9.4375 0.359375 C 9.070312 0.347656 8.691406 0.1875 8.296875 -0.125 C 7.898438 -0.4375 7.585938 -0.820312 7.359375 -1.28125 L 4.875 0.296875 L 4.15625 0.34375 C 3.195312 0.34375 2.40625 0.0625 1.78125 -0.5 C 1.15625 -1.0625 0.84375 -1.738281 0.84375 -2.53125 C 0.84375 -3.632812 1.4375 -4.503906 2.625 -5.140625 L 7 -5.25 L 7 -7.296875 C 7 -8.515625 6.640625 -9.289062 5.921875 -9.625 C 5.222656 -9.582031 4.648438 -9.484375 4.203125 -9.328125 L 3.796875 -6.859375 L 1.875 -6.796875 C 1.539062 -7.628906 1.375 -8.550781 1.375 -9.5625 L 1.390625 -10.015625 C 2.234375 -10.378906 3.238281 -10.703125 4.40625 -10.984375 C 5.582031 -11.265625 6.476562 -11.40625 7.09375 -11.40625 C 7.65625 -11.40625 8.207031 -11.253906 8.75 -10.953125 C 9.289062 -10.648438 9.726562 -10.253906 10.0625 -9.765625 C 10.226562 -9.472656 10.316406 -8.894531 10.328125 -8.03125 L 10.328125 -2.53125 C 10.328125 -2.164062 10.519531 -1.984375 10.90625 -1.984375 L 12.03125 -2.125 Z M 4.640625 -1.6875 C 5.253906 -1.707031 6.039062 -1.898438 7 -2.265625 L 7 -3.90625 L 6.421875 -3.9375 C 4.910156 -3.9375 4.15625 -3.523438 4.15625 -2.703125 C 4.15625 -2.285156 4.316406 -1.945312 4.640625 -1.6875 Z M 4.640625 -1.6875 "/></g></g></g><g fill="#000000" fill-opacity="1"><g transform="translate(252.970156, 262.693938)"><g><path d="M 7.6875 -10.96875 C 8.050781 -11.101562 8.429688 -11.171875 8.828125 -11.171875 C 9.617188 -11.171875 10.257812 -10.945312 10.75 -10.5 C 10.664062 -8.820312 10.378906 -7.378906 9.890625 -6.171875 L 8.15625 -6.171875 L 7.703125 -8.734375 C 6.867188 -8.109375 6.097656 -7.367188 5.390625 -6.515625 L 5.390625 -1.890625 C 6.460938 -1.679688 7.285156 -1.425781 7.859375 -1.125 L 7.765625 0 L 0.453125 0 L 0.390625 -0.78125 C 0.816406 -1.019531 1.378906 -1.265625 2.078125 -1.515625 L 2.078125 -9.1875 L 0.359375 -9.390625 L 0.203125 -10.5 C 1.515625 -11 2.875 -11.265625 4.28125 -11.296875 L 5.390625 -10.28125 L 5.390625 -8.40625 Z M 7.6875 -10.96875 "/></g></g></g><g fill="#000000" fill-opacity="1"><g transform="translate(263.966195, 262.693938)"><g><path d="M 4.28125 0.890625 C 3.925781 0.753906 3.523438 0.515625 3.078125 0.171875 C 2.640625 -0.171875 2.304688 -0.492188 2.078125 -0.796875 C 2.609375 -1.867188 3.195312 -2.585938 3.84375 -2.953125 C 4.613281 -2.660156 5.3125 -2.09375 5.9375 -1.25 C 5.59375 -0.34375 5.039062 0.367188 4.28125 0.890625 Z M 4.28125 0.890625 "/></g></g></g><g fill="#000000" fill-opacity="1"><g transform="translate(270.115765, 262.693938)"><g><path d="M 6.625 0.3125 L 5.921875 0.359375 C 4.304688 0.359375 2.96875 -0.175781 1.90625 -1.25 C 0.84375 -2.332031 0.3125 -3.722656 0.3125 -5.421875 C 0.3125 -7.160156 0.84375 -8.582031 1.90625 -9.6875 C 2.96875 -10.789062 4.304688 -11.34375 5.921875 -11.34375 C 6.847656 -11.34375 7.6875 -11.128906 8.4375 -10.703125 C 9.195312 -10.273438 9.753906 -9.664062 10.109375 -8.875 L 7.609375 -7.15625 C 6.710938 -8.375 5.769531 -9.144531 4.78125 -9.46875 C 3.96875 -8.59375 3.5625 -7.429688 3.5625 -5.984375 C 3.5625 -4.785156 3.851562 -3.804688 4.4375 -3.046875 C 5.03125 -2.296875 5.859375 -1.921875 6.921875 -1.921875 C 7.703125 -1.921875 8.523438 -2.125 9.390625 -2.53125 L 9.875 -1.390625 Z M 6.625 0.3125 "/></g></g></g><g fill="#000000" fill-opacity="1"><g transform="translate(280.540276, 262.693938)"><g><path d="M 0.3125 -5.5 C 0.3125 -7.226562 0.84375 -8.632812 1.90625 -9.71875 C 2.96875 -10.800781 4.289062 -11.34375 5.875 -11.34375 C 7.457031 -11.34375 8.765625 -10.789062 9.796875 -9.6875 C 10.828125 -8.582031 11.34375 -7.148438 11.34375 -5.390625 C 11.34375 -3.628906 10.832031 -2.210938 9.8125 -1.140625 C 8.800781 -0.078125 7.507812 0.453125 5.9375 0.453125 C 4.34375 0.453125 3.003906 -0.109375 1.921875 -1.234375 C 0.847656 -2.359375 0.3125 -3.78125 0.3125 -5.5 Z M 6.875 -1.53125 C 7.59375 -2.03125 7.953125 -3.226562 7.953125 -5.125 C 7.953125 -6.375 7.765625 -7.394531 7.390625 -8.1875 C 7.015625 -8.988281 6.445312 -9.390625 5.6875 -9.390625 C 5.226562 -9.390625 4.84375 -9.285156 4.53125 -9.078125 C 3.976562 -8.347656 3.703125 -7.175781 3.703125 -5.5625 C 3.703125 -4.332031 3.898438 -3.332031 4.296875 -2.5625 C 4.691406 -1.800781 5.296875 -1.421875 6.109375 -1.421875 C 6.378906 -1.421875 6.632812 -1.457031 6.875 -1.53125 Z M 6.875 -1.53125 "/></g></g></g><g fill="#000000" fill-opacity="1"><g transform="translate(292.519326, 262.693938)"><g><path d="M 19.015625 -1.78125 C 19.765625 -1.550781 20.300781 -1.332031 20.625 -1.125 L 20.53125 0 L 14.5 0 L 14.421875 -0.78125 L 15.703125 -1.375 L 15.703125 -6.609375 C 15.703125 -8.097656 15.207031 -8.84375 14.21875 -8.84375 C 13.726562 -8.84375 13.050781 -8.597656 12.1875 -8.109375 L 12.203125 -1.765625 C 12.816406 -1.546875 13.296875 -1.332031 13.640625 -1.125 L 13.5625 0 L 7.703125 0 L 7.640625 -0.78125 L 8.890625 -1.34375 L 8.890625 -6.609375 C 8.890625 -8.097656 8.394531 -8.84375 7.40625 -8.84375 C 6.945312 -8.84375 6.273438 -8.609375 5.390625 -8.140625 L 5.390625 -1.734375 C 5.921875 -1.566406 6.390625 -1.363281 6.796875 -1.125 L 6.703125 0 L 0.484375 0 L 0.40625 -0.78125 C 0.820312 -1.007812 1.378906 -1.253906 2.078125 -1.515625 L 2.078125 -9.1875 L 0.359375 -9.390625 L 0.203125 -10.5 C 1.515625 -11 2.875 -11.265625 4.28125 -11.296875 L 5.390625 -10.1875 L 5.390625 -9.234375 C 6.867188 -10.316406 8.113281 -10.976562 9.125 -11.21875 C 9.613281 -11.1875 10.125 -11.035156 10.65625 -10.765625 C 11.195312 -10.492188 11.613281 -10.113281 11.90625 -9.625 C 12 -9.4375 12.050781 -9.273438 12.0625 -9.140625 C 13.601562 -10.265625 14.894531 -10.957031 15.9375 -11.21875 C 16.632812 -11.175781 17.285156 -10.941406 17.890625 -10.515625 C 18.503906 -10.085938 18.859375 -9.539062 18.953125 -8.875 L 19.015625 -7.5625 Z M 19.015625 -1.78125 "/></g></g></g><g clip-path="url(#45f014cd59)"><path fill="#004a8c" d="M 212.128906 82.824219 L 204.398438 82.824219 L 208.992188 77.523438 C 210.046875 77.777344 211.136719 77.910156 212.277344 77.910156 C 219.953125 77.910156 226.222656 71.691406 226.273438 64.039062 C 226.324219 56.335938 220.074219 50.035156 212.277344 50 C 204.601562 50 198.316406 56.21875 198.28125 63.871094 C 198.265625 65.84375 198.667969 67.796875 199.453125 69.585938 L 188.15625 82.824219 L 183.210938 82.824219 L 169.097656 65.425781 C 170.875 62.566406 171.847656 59.257812 171.878906 55.867188 C 171.914062 50.988281 170.035156 46.390625 166.601562 42.929688 C 163.164062 39.457031 158.585938 37.535156 153.574219 37.5 C 143.550781 37.5 135.339844 45.636719 135.269531 55.648438 C 135.238281 60.527344 137.113281 65.125 140.550781 68.601562 C 143.988281 72.078125 148.582031 74 153.574219 74.03125 C 154.882812 74.03125 156.191406 73.898438 157.449219 73.632812 L 164.875 82.855469 L 155.402344 82.855469 C 142.011719 82.824219 125.683594 86.851562 125.683594 114.441406 L 125.683594 143.601562 C 125.683594 159.914062 139.058594 173.25 155.417969 173.25 L 212.128906 173.25 C 228.46875 173.25 241.863281 159.914062 241.863281 143.601562 L 241.863281 114.441406 C 241.863281 89.925781 225.519531 82.824219 212.128906 82.824219 Z M 215.109375 156.121094 L 152.4375 156.121094 C 147.828125 156.121094 143.9375 152.242188 143.9375 147.648438 L 143.972656 114.441406 L 143.972656 109.378906 C 144.136719 104.914062 147.945312 101.207031 152.4375 101.207031 L 215.109375 101.207031 C 219.71875 101.207031 223.609375 105.082031 223.609375 109.679688 L 223.574219 142.902344 L 223.609375 142.902344 L 223.609375 147.648438 C 223.609375 152.242188 219.71875 156.121094 215.109375 156.121094 Z M 215.109375 156.121094 " fill-opacity="1" fill-rule="nonzero"/></g><path fill="#db0000" d="M 171.125 138.488281 C 171.09375 133.109375 171.058594 124.285156 171.027344 118.902344 C 170.992188 113.523438 175.03125 111.300781 179.65625 113.957031 C 184.269531 116.628906 191.980469 120.992188 196.589844 123.667969 C 201.199219 126.339844 201.296875 130.734375 196.707031 133.460938 C 192.113281 136.183594 184.351562 140.628906 179.757812 143.335938 C 175.183594 146.058594 171.144531 143.871094 171.125 138.488281 Z M 171.125 138.488281 " fill-opacity="1" fill-rule="nonzero"/></svg>